# xmcd
# Track frame offsets:
# 150
# 12344
# 28283
# 43272
# 54692
# 68326
# 81474
# 93615
# 102378
# 115187
#
# Disc length: 1691 seconds
# Revision: 0
# Processed by: cddbd v1.4PL0 Copyright (c) Steve Scherf et al.
# Submitted via: VisiTrax 2.9.5.180 - For more info visit www.synapsa.com
#
DISCID=8806990a
DTITLE=Frank James - The honky tonk cowboy
DYEAR=2002
DGENRE=
TTITLE0=Honkytonk cowboy
TTITLE1=Memories wrapped in songs
TTITLE2=I'm beholdin' to him
TTITLE3=Little miss goody two shoes
TTITLE4=Guitars and harleys
TTITLE5=If it was good enough for Hank
TTITLE6=It's lonely at the bottom
TTITLE7=I've been around
TTITLE8=When I hold you close
TTITLE9=I don't do that anymore
EXTD=
EXTT0=
EXTT1=
EXTT2=
EXTT3=
EXTT4=
EXTT5=
EXTT6=
EXTT7=
EXTT8=
EXTT9=
PLAYORDER=
